<mxfile host="65bd71144e">
    <diagram id="mv6FPO_SjjlMbXXD2nZ5" name="Page-1">
        <mxGraphModel dx="656" dy="1203" grid="1" gridSize="10" guides="1" tooltips="1" connect="1" arrows="1" fold="1" page="1" pageScale="1" pageWidth="850" pageHeight="1100" math="0" shadow="0">
            <root>
                <mxCell id="0"/>
                <mxCell id="1" parent="0"/>
                <mxCell id="36" value="" style="rounded=0;whiteSpace=wrap;html=1;" vertex="1" parent="1">
                    <mxGeometry y="170" width="1040" height="870" as="geometry"/>
                </mxCell>
                <mxCell id="2" value="" style="rounded=0;whiteSpace=wrap;html=1;" parent="1" vertex="1">
                    <mxGeometry x="50" y="760" width="910" height="230" as="geometry"/>
                </mxCell>
                <mxCell id="3" value="" style="rounded=0;whiteSpace=wrap;html=1;" parent="1" vertex="1">
                    <mxGeometry x="50" y="490" width="910" height="210" as="geometry"/>
                </mxCell>
                <mxCell id="4" value="" style="rounded=0;whiteSpace=wrap;html=1;" parent="1" vertex="1">
                    <mxGeometry x="50" y="240" width="910" height="200" as="geometry"/>
                </mxCell>
                <mxCell id="5" value="Front-end" style="text;html=1;align=center;verticalAlign=middle;resizable=0;points=[];autosize=1;strokeColor=none;fillColor=none;" parent="1" vertex="1">
                    <mxGeometry x="50" y="210" width="80" height="30" as="geometry"/>
                </mxCell>
                <mxCell id="42" style="edgeStyle=none;html=1;entryX=0.5;entryY=-0.05;entryDx=0;entryDy=0;entryPerimeter=0;dashed=1;" edge="1" parent="1" source="6" target="37">
                    <mxGeometry relative="1" as="geometry"/>
                </mxCell>
                <mxCell id="43" style="edgeStyle=orthogonalEdgeStyle;html=1;exitX=0.75;exitY=1;exitDx=0;exitDy=0;dashed=1;" edge="1" parent="1" source="6" target="38">
                    <mxGeometry relative="1" as="geometry"/>
                </mxCell>
                <mxCell id="6" value="Home" style="rounded=1;whiteSpace=wrap;html=1;" parent="1" vertex="1">
                    <mxGeometry x="110" y="310" width="120" height="60" as="geometry"/>
                </mxCell>
                <mxCell id="44" style="edgeStyle=orthogonalEdgeStyle;html=1;dashed=1;entryX=0.642;entryY=0.05;entryDx=0;entryDy=0;entryPerimeter=0;" edge="1" parent="1" source="7" target="38">
                    <mxGeometry relative="1" as="geometry">
                        <Array as="points">
                            <mxPoint x="337" y="410"/>
                            <mxPoint x="337" y="410"/>
                        </Array>
                    </mxGeometry>
                </mxCell>
                <mxCell id="7" value="Portfolio" style="rounded=1;whiteSpace=wrap;html=1;" parent="1" vertex="1">
                    <mxGeometry x="250" y="310" width="120" height="60" as="geometry"/>
                </mxCell>
                <mxCell id="45" style="edgeStyle=orthogonalEdgeStyle;html=1;entryX=0.5;entryY=-0.117;entryDx=0;entryDy=0;entryPerimeter=0;dashed=1;" edge="1" parent="1" source="8" target="39">
                    <mxGeometry relative="1" as="geometry"/>
                </mxCell>
                <mxCell id="8" value="Login" style="rounded=1;whiteSpace=wrap;html=1;" parent="1" vertex="1">
                    <mxGeometry x="390" y="310" width="120" height="60" as="geometry"/>
                </mxCell>
                <mxCell id="13" value="Backend" style="text;html=1;align=center;verticalAlign=middle;resizable=0;points=[];autosize=1;strokeColor=none;fillColor=none;" parent="1" vertex="1">
                    <mxGeometry x="55" y="460" width="70" height="30" as="geometry"/>
                </mxCell>
                <mxCell id="14" style="edgeStyle=orthogonalEdgeStyle;rounded=0;orthogonalLoop=1;jettySize=auto;html=1;exitX=0.5;exitY=1;exitDx=0;exitDy=0;dashed=1;" parent="1" source="15" target="32" edge="1">
                    <mxGeometry relative="1" as="geometry"/>
                </mxCell>
                <mxCell id="15" value="Profile (Skills &amp;amp; Exp)&lt;br&gt;(Read)" style="rounded=1;whiteSpace=wrap;html=1;" parent="1" vertex="1">
                    <mxGeometry x="110" y="560" width="120" height="60" as="geometry"/>
                </mxCell>
                <mxCell id="18" value="" style="rounded=0;whiteSpace=wrap;html=1;" parent="1" vertex="1">
                    <mxGeometry x="570" y="510" width="370" height="160" as="geometry"/>
                </mxCell>
                <mxCell id="16" style="edgeStyle=orthogonalEdgeStyle;rounded=0;orthogonalLoop=1;jettySize=auto;html=1;entryX=0.5;entryY=0;entryDx=0;entryDy=0;exitX=0.5;exitY=1;exitDx=0;exitDy=0;dashed=1;" parent="1" source="17" target="33" edge="1">
                    <mxGeometry relative="1" as="geometry">
                        <Array as="points">
                            <mxPoint x="310" y="720"/>
                            <mxPoint x="480" y="720"/>
                        </Array>
                    </mxGeometry>
                </mxCell>
                <mxCell id="17" value="Portfolios&lt;br&gt;(Read)" style="rounded=1;whiteSpace=wrap;html=1;" parent="1" vertex="1">
                    <mxGeometry x="250" y="560" width="120" height="60" as="geometry"/>
                </mxCell>
                <mxCell id="19" style="edgeStyle=orthogonalEdgeStyle;rounded=0;orthogonalLoop=1;jettySize=auto;html=1;entryX=0.5;entryY=1;entryDx=0;entryDy=0;exitX=0.5;exitY=1;exitDx=0;exitDy=0;dashed=1;" parent="1" source="20" target="32" edge="1">
                    <mxGeometry relative="1" as="geometry">
                        <Array as="points">
                            <mxPoint x="680" y="650"/>
                            <mxPoint x="760" y="650"/>
                            <mxPoint x="760" y="925"/>
                            <mxPoint x="340" y="925"/>
                        </Array>
                    </mxGeometry>
                </mxCell>
                <mxCell id="20" value="Profile (Skills &amp;amp; Exp)&lt;br&gt;(Mutate)" style="rounded=1;whiteSpace=wrap;html=1;" parent="1" vertex="1">
                    <mxGeometry x="620" y="560" width="120" height="60" as="geometry"/>
                </mxCell>
                <mxCell id="21" style="edgeStyle=orthogonalEdgeStyle;rounded=0;orthogonalLoop=1;jettySize=auto;html=1;entryX=0.5;entryY=1;entryDx=0;entryDy=0;exitX=0.5;exitY=1;exitDx=0;exitDy=0;dashed=1;" parent="1" source="22" target="33" edge="1">
                    <mxGeometry relative="1" as="geometry">
                        <Array as="points">
                            <mxPoint x="820" y="950"/>
                            <mxPoint x="480" y="950"/>
                        </Array>
                    </mxGeometry>
                </mxCell>
                <mxCell id="22" value="Portfolios&lt;br&gt;(Mutate)" style="rounded=1;whiteSpace=wrap;html=1;" parent="1" vertex="1">
                    <mxGeometry x="760" y="560" width="120" height="60" as="geometry"/>
                </mxCell>
                <mxCell id="23" value="Only Owner" style="text;html=1;align=center;verticalAlign=middle;resizable=0;points=[];autosize=1;strokeColor=none;fillColor=none;" parent="1" vertex="1">
                    <mxGeometry x="565" y="510" width="90" height="30" as="geometry"/>
                </mxCell>
                <mxCell id="24" style="edgeStyle=orthogonalEdgeStyle;rounded=0;orthogonalLoop=1;jettySize=auto;html=1;exitX=0.5;exitY=1;exitDx=0;exitDy=0;dashed=1;entryX=0.45;entryY=0;entryDx=0;entryDy=0;entryPerimeter=0;" parent="1" source="25" target="34" edge="1">
                    <mxGeometry relative="1" as="geometry">
                        <Array as="points">
                            <mxPoint x="450" y="710"/>
                            <mxPoint x="614" y="710"/>
                        </Array>
                    </mxGeometry>
                </mxCell>
                <mxCell id="25" value="Authentication" style="rounded=1;whiteSpace=wrap;html=1;" parent="1" vertex="1">
                    <mxGeometry x="390" y="560" width="120" height="60" as="geometry"/>
                </mxCell>
                <mxCell id="26" value="/" style="text;html=1;align=left;verticalAlign=middle;resizable=0;points=[];autosize=1;strokeColor=none;fillColor=none;" parent="1" vertex="1">
                    <mxGeometry x="120" y="280" width="30" height="30" as="geometry"/>
                </mxCell>
                <mxCell id="27" value="/portfolios/:id" style="text;html=1;align=left;verticalAlign=middle;resizable=0;points=[];autosize=1;strokeColor=none;fillColor=none;" parent="1" vertex="1">
                    <mxGeometry x="260" y="280" width="90" height="30" as="geometry"/>
                </mxCell>
                <mxCell id="28" value="/login" style="text;html=1;align=left;verticalAlign=middle;resizable=0;points=[];autosize=1;strokeColor=none;fillColor=none;" parent="1" vertex="1">
                    <mxGeometry x="400" y="280" width="50" height="30" as="geometry"/>
                </mxCell>
                <mxCell id="31" value="Database" style="text;html=1;align=center;verticalAlign=middle;resizable=0;points=[];autosize=1;strokeColor=none;fillColor=none;" parent="1" vertex="1">
                    <mxGeometry x="50" y="730" width="70" height="30" as="geometry"/>
                </mxCell>
                <mxCell id="32" value="Profile" style="rounded=1;whiteSpace=wrap;html=1;" parent="1" vertex="1">
                    <mxGeometry x="280" y="845" width="120" height="60" as="geometry"/>
                </mxCell>
                <mxCell id="33" value="Portfolios" style="rounded=1;whiteSpace=wrap;html=1;" parent="1" vertex="1">
                    <mxGeometry x="420" y="845" width="120" height="60" as="geometry"/>
                </mxCell>
                <mxCell id="34" value="Users" style="rounded=1;whiteSpace=wrap;html=1;" parent="1" vertex="1">
                    <mxGeometry x="560" y="845" width="120" height="60" as="geometry"/>
                </mxCell>
                <mxCell id="37" value="GET /v1/profile" style="text;html=1;align=left;verticalAlign=middle;resizable=0;points=[];autosize=1;strokeColor=none;fillColor=none;" vertex="1" parent="1">
                    <mxGeometry x="120" y="530" width="100" height="30" as="geometry"/>
                </mxCell>
                <mxCell id="38" value="GET /v1/portfolios" style="text;html=1;align=left;verticalAlign=middle;resizable=0;points=[];autosize=1;strokeColor=none;fillColor=none;" vertex="1" parent="1">
                    <mxGeometry x="260" y="530" width="120" height="30" as="geometry"/>
                </mxCell>
                <mxCell id="39" value="POST /v1/auth" style="text;html=1;align=left;verticalAlign=middle;resizable=0;points=[];autosize=1;strokeColor=none;fillColor=none;" vertex="1" parent="1">
                    <mxGeometry x="400" y="530" width="100" height="30" as="geometry"/>
                </mxCell>
                <mxCell id="40" value="POST /v1/profile" style="text;html=1;align=left;verticalAlign=middle;resizable=0;points=[];autosize=1;strokeColor=none;fillColor=none;" vertex="1" parent="1">
                    <mxGeometry x="630" y="530" width="110" height="30" as="geometry"/>
                </mxCell>
                <mxCell id="41" value="POST /v1/portfolios" style="text;html=1;align=left;verticalAlign=middle;resizable=0;points=[];autosize=1;strokeColor=none;fillColor=none;" vertex="1" parent="1">
                    <mxGeometry x="770" y="530" width="130" height="30" as="geometry"/>
                </mxCell>
                <mxCell id="46" style="edgeStyle=orthogonalEdgeStyle;html=1;entryX=0.491;entryY=0.017;entryDx=0;entryDy=0;entryPerimeter=0;dashed=1;exitX=0.5;exitY=0;exitDx=0;exitDy=0;fillColor=#d80073;strokeColor=#A50040;" edge="1" parent="1" source="6" target="40">
                    <mxGeometry relative="1" as="geometry">
                        <Array as="points">
                            <mxPoint x="170" y="270"/>
                            <mxPoint x="684" y="270"/>
                        </Array>
                    </mxGeometry>
                </mxCell>
                <mxCell id="48" style="edgeStyle=orthogonalEdgeStyle;html=1;entryX=0.615;entryY=0;entryDx=0;entryDy=0;entryPerimeter=0;dashed=1;exitX=0.75;exitY=0;exitDx=0;exitDy=0;fillColor=#d80073;strokeColor=#A50040;" edge="1" parent="1" source="7" target="41">
                    <mxGeometry relative="1" as="geometry">
                        <Array as="points">
                            <mxPoint x="340" y="220"/>
                            <mxPoint x="850" y="220"/>
                        </Array>
                    </mxGeometry>
                </mxCell>
                <mxCell id="49" style="edgeStyle=orthogonalEdgeStyle;html=1;dashed=1;exitX=0.65;exitY=0.008;exitDx=0;exitDy=0;exitPerimeter=0;fillColor=#d80073;strokeColor=#A50040;" edge="1" parent="1" source="6" target="41">
                    <mxGeometry relative="1" as="geometry">
                        <Array as="points">
                            <mxPoint x="188" y="250"/>
                            <mxPoint x="835" y="250"/>
                        </Array>
                    </mxGeometry>
                </mxCell>
            </root>
        </mxGraphModel>
    </diagram>
</mxfile>